Coordinates
version=1
nRows=5
nColumns=63
inDegrees=yes

Units are S.I. units (second, meters, Newtons, ...)
If the header above contains a line with 'inDegrees', this indicates whether rotational values are in degrees (yes) or radians (no).

endheader
time	pelvis_tilt	pelvis_list	pelvis_rotation	pelvis_tx	pelvis_ty	pelvis_tz	hip_flexion_r	hip_adduction_r	hip_rotation_r	knee_angle_r	knee_angle_r_beta	ankle_angle_r	subtalar_angle_r	mtp_angle_r	hip_flexion_l	hip_adduction_l	hip_rotation_l	knee_angle_l	knee_angle_l_beta	ankle_angle_l	subtalar_angle_l	mtp_angle_l	L5_S1_Flex_Ext	L5_S1_Lat_Bending	L5_S1_axial_rotation	L4_L5_Flex_Ext	L4_L5_Lat_Bending	L4_L5_axial_rotation	L3_L4_Flex_Ext	L3_L4_Lat_Bending	L3_L4_axial_rotation	L2_L3_Flex_Ext	L2_L3_Lat_Bending	L2_L3_axial_rotation	L1_L2_Flex_Ext	L1_L2_Lat_Bending	L1_L2_axial_rotation	L1_T12_Flex_Ext	L1_T12_Lat_Bending	L1_T12_axial_rotation	Abs_r3	Abs_r2	Abs_r1	Abs_t1	Abs_t2	neck_flexion	neck_bending	neck_rotation	arm_flex_r	arm_add_r	arm_rot_r	elbow_flex_r	pro_sup_r	wrist_flex_r	wrist_dev_r	arm_flex_l	arm_add_l	arm_rot_l	elbow_flex_l	pro_sup_l	wrist_flex_l	wrist_dev_l
     17.55000000	     -4.79867452	     -2.71706162	    100.13687637	      0.09037297	      0.45289796	      0.85523289	      4.20909160	     -0.77614024	    -13.60662450	      7.31913306	      0.12774297	     28.87314905	     16.01804730	      0.00000000	      9.17125725	     -0.37040287	      1.17405129	     13.41711004	      0.23417275	     23.71211032	      2.55787585	      0.00000000	     -0.20047248	     -0.24488391	     -1.61976989	     -0.37229744	     -0.32569561	     -1.72100551	     -0.32935623	     -0.59541075	     -1.72100551	     -0.22911999	     -0.59541075	     -1.41729866	     -0.18615874	     -0.49936728	     -1.31606304	     -0.11454997	     -0.37932518	     -1.21482742	     -1.43195486	     -2.77017581	     -9.00867422	      0.00000000	      0.00000000	      8.10693664	     -9.85802403	      7.96050496	     12.84783180	     -4.97638622	    141.96470358	      3.09844875	      4.19532996	     -7.65589055	     -9.51104773	     -5.47346500	    -15.18165017	     20.86615003	     53.21067584	     86.63714173	     -8.24960582	      7.45708532
     17.56666667	     -4.74816948	     -2.66057135	    100.09920895	      0.09052830	      0.45299783	      0.85520230	      4.06359285	     -0.68173550	    -13.54785542	      7.10906328	      0.12407656	     28.61229392	     15.89414119	      0.00000000	      9.10865482	     -0.47145310	      1.11956058	     13.44860073	      0.23472236	     23.61377029	      2.76480388	      0.00000000	     -0.19881095	     -0.24061251	     -1.59817094	     -0.36921181	     -0.32001463	     -1.69805662	     -0.32662650	     -0.58502525	     -1.69805662	     -0.22722103	     -0.58502525	     -1.39839957	     -0.18461584	     -0.49065702	     -1.29851389	     -0.11360057	     -0.37270877	     -1.19862820	     -1.42008671	     -2.72185680	     -8.88854731	      0.00000000	      0.00000000	      7.85320440	     -9.72963159	      8.12432533	     12.74088460	     -5.00076959	    141.16754868	      3.22226731	      5.44766812	     -7.35775028	     -9.22124287	     -5.55338916	    -15.16999449	     20.81812996	     53.31367684	     86.73957168	     -8.40557817	      7.41169813
     17.58333333	     -4.67952784	     -2.62228413	    100.24500135	      0.09021431	      0.45302001	      0.85489404	      3.83551346	     -0.55715071	    -13.36548669	      6.74866888	      0.11778649	     28.45837829	     15.55464582	      0.00000000	      9.02210613	     -0.43281208	      2.09909581	     13.38512482	      0.23361450	     23.33263619	      1.61820123	      0.00000000	     -0.19114688	     -0.23378415	     -1.62567306	     -0.35497887	     -0.31093291	     -1.72727763	     -0.31403521	     -0.56842277	     -1.72727763	     -0.21846177	     -0.56842277	     -1.42246393	     -0.17749899	     -0.47673263	     -1.32085936	     -0.10922133	     -0.36213164	     -1.21925480	     -1.36534306	     -2.64461302	     -9.04150588	      0.00000000	      0.00000000	      7.61349253	     -9.44343418	      8.43036091	     12.62477597	     -4.99422480	    143.48652670	      3.14001441	      4.75635418	     -7.21582952	     -8.73778697	     -5.76409137	    -15.19637398	     20.72809229	     53.43775793	     86.77709373	     -8.30232604	      7.04946938
     17.60000000	     -4.67455502	     -2.56999404	    100.19446005	      0.09029510	      0.45305174	      0.85477750	      3.61830736	     -0.47277726	    -12.82691183	      6.35338877	      0.11088755	     28.31688847	     15.06956613	      0.00000000	      8.92581848	     -0.46200905	      2.09271475	     13.33991311	      0.23282541	     23.29358241	      1.59921864	      0.00000000	     -0.19269701	     -0.23544163	     -1.61950646	     -0.35785762	     -0.31313736	     -1.72072561	     -0.31658192	     -0.57245277	     -1.72072561	     -0.22023342	     -0.57245277	     -1.41706815	     -0.17893845	     -0.48011256	     -1.31584900	     -0.11010707	     -0.36469908	     -1.21462984	     -1.37641549	     -2.66336275	     -9.00720907	      0.00000000	      0.00000000	      7.44519035	     -9.34971918	      8.44455421	     12.54793068	     -4.97696862	    144.03297579	      3.17963691	      4.74194380	     -6.84247637	     -8.34606854	     -5.97262187	    -15.27381009	     20.74385459	     53.59655432	     86.73920585	     -8.71325481	      6.40879042
     17.61666667	     -4.67790230	     -2.54604133	    100.25372542	      0.09032889	      0.45303709	      0.85475074	      3.41828141	     -0.39465307	    -12.39445940	      5.93178950	      0.10352926	     28.21727244	     14.63588384	      0.00000000	      8.90262882	     -0.46629525	      2.08796628	     13.33728307	      0.23277950	     23.32983086	      1.63574545	      0.00000000	     -0.19450821	     -0.23983902	     -1.63385502	     -0.36122120	     -0.31898590	     -1.73597096	     -0.31955754	     -0.58314459	     -1.73597096	     -0.22230344	     -0.58314459	     -1.42962314	     -0.18062033	     -0.48907973	     -1.32750720	     -0.11114199	     -0.37151064	     -1.22539127	     -1.38935271	     -2.71310696	     -9.08701147	      0.00000000	      0.00000000	      7.36461748	     -9.36748705	      8.26697284	     12.49868735	     -4.94262400	    143.91464495	      3.28319145	      4.81786786	     -6.64489843	     -8.08233553	     -6.18007931	    -15.37592250	     20.70255356	     53.73268028	     86.75579170	     -8.91634336	      5.67860524
